<?xml version="1.0" encoding="utf-8"?>
<!-- Generator: Adobe Illustrator 24.0.0, SVG Export Plug-In . SVG Version: 6.00 Build 0)  -->
<svg version="1.1" id="Layer_1" xmlns="http://www.w3.org/2000/svg" xmlns:xlink="http://www.w3.org/1999/xlink" x="0px" y="0px"
	 viewBox="0 0 281.8 54.5" style="enable-background:new 0 0 281.8 54.5;" xml:space="preserve">
<style type="text/css">
	.st0{fill:#FFFFFF;}
</style>
<polygon class="st0" points="1,41.2 1,1 22.6,1 22.6,7.9 8.4,7.9 8.4,17.8 22,17.8 22,24.7 8.4,24.7 8.4,34.2 22.6,34.2 22.6,41.2 
	"/>
<path class="st0" d="M44.3,41.2V26.3c0-4.2-0.7-9.7-6.1-9.7c-1.9,0-3.9,1.1-4.9,2.7C32,21.2,32,24.6,32,26.8v14.3h-7.2V11h6.7v2.6
	c2.4-2.3,4.8-3.6,8.3-3.6c3.3,0,6.9,1.6,9.1,4.2c2.3,2.8,2.8,6.7,2.8,10.3v16.7H44.3z"/>
<path class="st0" d="M68.1,16.6c-5.1,0-8.8,4.3-8.8,9.2c0,5.2,3.7,9.7,9,9.7s8.6-4.8,8.6-9.7C76.9,21,73,16.6,68.1,16.6 M74.5,52
	c-2.1,0.9-4.5,1.4-6.8,1.4c-6.7,0-12.7-3.7-15.1-10h8.3c2,2.3,4.4,3.4,7.4,3.4c5.4,0,9-4.2,9.2-9.4l-0.1-0.1
	c-2.3,3.3-5.9,4.8-9.9,4.8c-2.1,0-4.1-0.5-6-1.4c-6-2.7-9.4-8.5-9.4-15c0-8.5,6.7-15.8,15.4-15.8c3.9,0,7.4,1.5,9.6,4.7h0.1V11h7
	v24.6C84.2,42.9,81.4,49.1,74.5,52"/>
<path class="st0" d="M99.7,16.6c-5.4,0-9,4.5-9,9.6c0,5,3.8,9.3,9,9.3c5.4,0,8.8-4.3,8.8-9.5C108.5,20.9,105.1,16.6,99.7,16.6
	 M108.8,41.2v-3.7c-2.4,2.8-6.8,4.7-10.5,4.7c-9.1,0-14.7-7.7-14.7-16.2c0-8.6,6.2-15.9,15.1-15.9c3.3,0,6.5,1.4,8.9,3.6
	c0.3,0.3,0.8,0.8,1.1,1.2h0.1V11h6.6v30.1h-6.6V41.2z"/>
<path class="st0" d="M131.6,16.6c-5.1,0-8.8,4.3-8.8,9.2c0,5.2,3.7,9.7,9,9.7s8.6-4.8,8.6-9.7C140.5,21,136.5,16.6,131.6,16.6
	 M138,52c-2.1,0.9-4.5,1.4-6.8,1.4c-6.7,0-12.7-3.7-15.1-10h8.3c2,2.3,4.4,3.4,7.4,3.4c5.4,0,9-4.2,9.2-9.4l-0.1-0.1
	c-2.3,3.3-5.9,4.8-9.9,4.8c-2.1,0-4.1-0.5-6-1.4c-6-2.7-9.4-8.5-9.4-15c0-8.5,6.7-15.8,15.4-15.8c3.9,0,7.4,1.5,9.6,4.7h0.1V11h7
	v24.6C147.7,42.9,144.9,49.1,138,52"/>
<path class="st0" d="M163.2,16.6c-4.4,0-7.5,2.6-8.5,6.9h16.7C170.6,19.2,167.6,16.6,163.2,16.6 M178.3,29.3h-23.4
	c0.2,0.8,0.5,1.5,1,2.2c1.6,2.5,4.3,4,7.3,4c2.9,0,5.5-1.2,6.9-3.9h7.6c-2,6.1-8.1,10.5-14.5,10.5c-9,0-15.9-7-15.9-16
	S154,9.9,163.2,9.9c8.8,0,15.6,6.9,15.6,15.7C178.7,26.9,178.6,28.1,178.3,29.3"/>
<polygon class="st0" points="202,41.2 202,24.3 187.6,24.3 187.6,41.2 180.1,41.2 180.1,1 187.6,1 187.6,17.3 202,17.3 202,1 
	209.4,1 209.4,41.2 "/>
<path class="st0" d="M232,41.2v-3h-0.1c-2,2.8-4.3,4-7.8,4c-3.9,0-7.9-1.5-10.1-4.8c-2.1-3-2.2-6.8-2.2-10.4V11h7.2v15.4
	c0,4.3,0.9,9.1,6.3,9.1c5,0,6.1-5,6.1-9.1V11h7.2v30.1H232V41.2z"/>
<path class="st0" d="M255.9,16.6c-5,0-9,4.1-9,9.1c0,5.3,3.5,9.8,9.1,9.8c5.4,0,8.7-4.3,8.7-9.5C264.7,20.9,261.2,16.6,255.9,16.6
	 M270.6,32.5c-2.3,6-7.2,9.6-13.7,9.6c-4.4,0-7.3-1.4-10.2-4.6v3.6h-6.6V1h7.2v12.8c2.4-2.4,5.9-3.7,9.4-3.7c8.7,0,15.1,7.5,15.1,16
	C271.9,28.2,271.4,30.5,270.6,32.5"/>
<rect x="273.3" y="33.9" class="st0" width="7.2" height="7.2"/>
</svg>
